<svg width="198" height="105" xmlns="http://www.w3.org/2000/svg">

 <g>
  <title>background</title>
  <rect fill="none" id="canvas_background" height="402" width="582" y="-1" x="-1"/>
 </g>
 <g>
  <title>Layer 1</title>
  <g id="svg_1" clip-rule="evenodd" fill-rule="evenodd">
   <path id="svg_2" d="m-1,-42l192.756,0l0,192.756l-192.756,0l0,-192.756z" fill="#fff"/>
   <path id="svg_3" d="m76.238,85.473c4.647,0 7.75,3.768 6.931,8.414s-5.251,8.414 -9.898,8.414l-35.613,0c-18.055,0 -32.005,-20.312 -29.954,-40.42c2.052,-20.104 22.157,-55.391 59.906,-55.391l28.638,-0.034c5.123,0 8.543,4.153 7.641,9.276c-0.904,5.124 -5.789,9.276 -10.913,9.276l-26.186,0c-13.54,-0.055 -35.697,12.255 -40.211,35.642c-2.052,12.311 5.334,24.619 22.978,24.619l26.681,0.204z"/>
   <path id="svg_4" d="m133.877,44.069a6.6,6.6 0 0 0 0,-13.201l-8.617,0.035l0.924,-5.95c0.512,-4.513 -3.215,-7.181 -7.182,-7.181s-7.078,3.283 -7.592,7.181l-1.127,5.95l-4.617,-0.035a6.6,6.6 0 0 0 0,13.201l2.154,0l-3.896,21.71c-1.232,5.539 1.23,13.131 9.641,13.131l13.029,0.035c3.645,0 6.908,-2.955 6.908,-6.6c0,-3.646 -3.264,-6.602 -6.908,-6.602l-4.822,0.035c-2.051,0 -2.871,-1.436 -2.461,-2.871l3.486,-18.875l11.08,0.037z"/>
   <path id="svg_5" d="m140.955,78.945c-3.646,0 -6.91,-2.955 -6.91,-6.6c0,-3.646 3.264,-6.602 6.91,-6.602l17.539,0c1.848,0.035 2.873,-2.631 0.615,-3.451l-11.898,-6.156c-4.514,-2.46 -9.893,-9.36 -6.256,-17.437c3.691,-8.207 12.207,-7.591 15.078,-7.796l20.619,0.016c3.645,0 6.6,2.903 6.6,6.549s-2.955,6.55 -6.6,6.55l-18.619,0c-1.846,-0.036 -1.795,1.041 -0.154,1.862l13.951,8.001c6.359,4.308 5.744,10.873 3.283,15.591c-2.463,4.719 -6.566,9.438 -15.592,9.438l-18.566,0.035zm-62.061,-31.424c-11.078,-0.923 -27.286,4.104 -28.517,15.797c-1.231,11.693 8.617,15.797 12.925,16.002c4.308,0.205 8.411,-0.82 11.488,-3.693c1.847,3.078 5.54,4.104 8.002,4.104c5.539,-0.205 8.616,-4.104 9.642,-8.412l5.333,-28.926c1.027,-5.539 -5.539,-11.489 -11.693,-11.489l-20.414,0.375c-3.645,0 -6.601,2.544 -6.601,6.19s2.956,6.601 6.601,6.601l14.463,0c2.669,0.035 2.053,3.451 -1.229,3.451zm-1.846,10.053c5.539,1.846 -1.642,8.615 -5.95,9.025c-4.309,0.412 -6.771,-3.076 -4.309,-5.744c2.462,-2.666 7.386,-3.486 10.259,-3.281z"/>
  </g>
 </g>
</svg>