<svg version="1.2" baseProfile="tiny-ps" xmlns="http://www.w3.org/2000/svg" viewBox="0 0 30 32" width="30" height="32">
	<title>Layer</title>
	<style>
		tspan { white-space:pre }
		.shp0 { fill: #e8c2d8 } 
		.shp1 { fill: #d789b9 } 
		.shp2 { fill: #d392d8 } 
		.shp3 { fill: #f6e06e } 
		.shp4 { fill: #dda86a } 
		.shp5 { fill: #e9c3d9 } 
		.shp6 { fill: #d88aba } 
		.shp7 { fill: #3c122c } 
		.shp8 { fill: #ffffff } 
	</style>
	<g id="Layer">
		<g id="Layer">
			<path id="Layer" class="shp0" d="M25.57 28.09C25.7 27.35 25.77 26.59 25.77 25.82C25.77 24.43 25.55 23.1 25.16 21.87C24.65 20.25 24.44 18.56 24.6 16.87C24.63 16.58 24.64 16.29 24.64 15.99C24.63 14.25 24.07 12.63 23.14 11.29C23.29 10.28 23.72 6.92 22.7 6.43C21.95 6.07 20.44 7.33 19.44 8.3C18.49 7.91 17.45 7.68 16.36 7.67C15.06 7.65 13.83 7.93 12.73 8.44C11.73 7.45 10.12 6.05 9.33 6.43C8.13 7 8.94 11.57 8.94 11.57L9.26 11.41C8.38 12.74 7.86 14.34 7.86 16.06C7.86 16.28 7.87 16.5 7.88 16.72C8.01 18.39 7.82 20.07 7.28 21.66C6.85 22.95 6.61 24.35 6.61 25.82C6.61 26.69 6.69 27.53 6.85 28.35C5.61 28.33 4.61 27.32 4.61 26.07L4.61 24.53C4.61 23.7 3.93 23.02 3.09 23.02C2.26 23.02 1.58 23.7 1.58 24.53L1.58 26.07C1.58 28.99 3.96 31.37 6.88 31.37C6.9 31.37 6.92 31.37 6.94 31.37L7.84 31.34C7.84 31.34 7.84 31.35 7.85 31.35L24.53 31.35C24.54 31.34 24.54 31.33 24.55 31.31L24.55 31.34C25.74 31.34 26.7 30.57 26.7 29.61C26.7 28.95 26.25 28.38 25.57 28.09L25.57 28.09Z" />
			<path id="Layer" class="shp1" d="M17.16 15.11C17.16 15.69 16.73 16.17 16.19 16.17C15.65 16.17 15.21 15.69 15.21 15.11L16.18 14.33L17.16 15.11Z" />
			<path id="Layer" class="shp2" d="M25.57 28.09C25.7 27.35 25.77 26.59 25.77 25.82C25.77 24.43 25.55 23.1 25.16 21.87C24.64 20.23 24.46 18.51 24.61 16.8C24.63 16.54 24.64 16.27 24.64 15.99C24.63 14.25 24.07 12.63 23.14 11.29C23.29 10.28 23.72 6.92 22.7 6.43C22.3 6.24 21.69 6.5 21.06 6.93C21.42 7.94 21.16 9.99 21.05 10.7C21.87 11.88 22.35 13.32 22.36 14.85C22.37 15.11 22.35 15.37 22.33 15.63C22.19 17.11 22.37 18.61 22.82 20.03C23.16 21.11 23.35 22.26 23.45 23.48C23.5 24.16 23.45 25.27 23.42 25.93C23.38 26.58 22.94 28.38 21.46 28.38L10.76 28.39C8.66 28.39 6.88 26.8 6.67 24.7C6.67 24.68 6.66 24.65 6.66 24.63C6.63 25.02 6.61 25.41 6.61 25.82C6.61 27.83 7.06 29.72 7.85 31.35L24.53 31.35C24.54 31.34 24.54 31.33 24.55 31.31L24.55 31.34C25.74 31.34 26.7 30.57 26.7 29.61C26.7 28.95 26.25 28.38 25.57 28.09L25.57 28.09Z" />
			<path id="Layer" class="shp3" d="M14.66 9.39C14.66 9.37 14.66 9.35 14.67 9.33C14.62 8.5 14.81 7.76 15.33 7.15C15.26 6.22 15.44 5.48 15.99 4.99C16.19 3.94 16.55 2.81 17.03 1.61C17.08 1.43 17.35 1.46 17.36 1.65C17.52 2.68 17.61 3.63 17.5 4.4C17.8 4.98 17.86 5.6 17.6 6.25C17.85 6.85 17.92 7.49 17.7 8.19C18.06 8.81 17.89 9.42 17.83 9.71C17.58 10.68 14.68 10.34 14.66 9.39L14.66 9.39Z" />
			<path id="Layer" class="shp4" d="M14.66 8.96C14.66 8.94 14.66 8.92 14.67 8.9C14.63 8.31 14.72 7.77 14.96 7.28C14.95 7.44 14.94 7.59 14.95 7.76C14.95 7.78 14.95 7.79 14.95 7.81C14.96 8.62 17.52 8.91 17.74 8.08C17.75 8.03 17.76 7.97 17.77 7.91C18.03 8.48 17.88 9.02 17.83 9.28C17.58 10.26 14.68 9.91 14.66 8.96L14.66 8.96Z" />
			<path id="Layer" class="shp5" d="M2.45 0.4L2.99 1.91C3.02 1.98 3.06 2.03 3.12 2.06L4.47 2.66C4.66 2.75 4.66 3.05 4.47 3.14L3.12 3.75C3.06 3.77 3.02 3.82 2.99 3.89L2.45 5.4C2.38 5.62 2.11 5.62 2.03 5.4L1.49 3.89C1.47 3.82 1.42 3.77 1.37 3.75L0.02 3.14C-0.17 3.05 -0.17 2.75 0.02 2.66L1.37 2.06C1.42 2.03 1.47 1.98 1.49 1.91L2.03 0.4C2.11 0.18 2.38 0.18 2.45 0.4L2.45 0.4Z" />
			<path id="Layer" class="shp5" d="M28.53 2.37L28.93 3.5C28.94 3.55 28.98 3.58 29.02 3.6L30.02 4.05C30.16 4.12 30.16 4.34 30.02 4.41L29.02 4.86C28.98 4.88 28.94 4.91 28.93 4.96L28.53 6.09C28.47 6.25 28.27 6.25 28.21 6.09L27.81 4.96C27.8 4.91 27.76 4.88 27.72 4.86L26.72 4.41C26.58 4.34 26.58 4.12 26.72 4.05L27.72 3.6C27.76 3.58 27.8 3.55 27.81 3.5L28.21 2.37C28.27 2.21 28.47 2.21 28.53 2.37L28.53 2.37Z" />
			<g id="Layer">
				<path id="Layer" class="shp6" d="M12.3 2.61C12.26 2.89 12 3.07 11.72 3.03C11.44 2.98 11.25 2.72 11.3 2.45C11.34 2.17 11.6 1.98 11.88 2.03C12.16 2.07 12.35 2.33 12.3 2.61Z" />
				<path id="Layer" class="shp6" d="M4.41 10.91C3.92 10.97 3.47 10.62 3.41 10.14C3.35 9.65 3.7 9.2 4.19 9.14C4.68 9.08 5.12 9.43 5.18 9.92C5.24 10.41 4.9 10.85 4.41 10.91Z" />
			</g>
		</g>
		<g id="Layer">
			<g id="Layer">
				<path id="Layer" class="shp7" d="M13.01 14.58C12.92 14.99 12.5 15.25 12.08 15.15C11.67 15.05 11.41 14.64 11.51 14.22C11.61 13.8 12.02 13.55 12.44 13.65C12.86 13.74 13.11 14.16 13.01 14.58Z" />
				<path id="Layer" class="shp7" d="M20.66 14.94C20.36 15.24 19.87 15.24 19.56 14.94C19.26 14.64 19.26 14.15 19.56 13.85C19.87 13.54 20.36 13.54 20.66 13.85C20.96 14.15 20.96 14.64 20.66 14.94Z" />
				<path id="Layer" fill-rule="evenodd" class="shp7" d="M17.88 14.97C17.88 15.17 17.72 15.34 17.52 15.35C17.41 16.03 16.86 16.55 16.19 16.55C15.52 16.55 14.96 16.03 14.86 15.35C14.65 15.34 14.49 15.17 14.49 14.97C14.49 14.76 14.66 14.59 14.87 14.59C15.38 14.59 15.8 14.18 15.8 13.66C15.8 13.45 15.97 13.29 16.18 13.29C16.18 13.29 16.19 13.29 16.19 13.29C16.19 13.29 16.19 13.29 16.2 13.29C16.41 13.29 16.57 13.45 16.57 13.66C16.57 14.18 16.99 14.59 17.51 14.59C17.71 14.59 17.88 14.76 17.88 14.97ZM16.78 15.18C16.55 15.07 16.35 14.91 16.19 14.71C16.03 14.91 15.83 15.07 15.59 15.18C15.63 15.53 15.88 15.79 16.19 15.79C16.5 15.79 16.75 15.53 16.78 15.18Z" />
				<path id="Layer" class="shp7" d="M13.38 25.31C12.59 25.31 11.77 24.78 11.35 23.9C11.26 23.71 11.34 23.49 11.52 23.4C11.71 23.31 11.94 23.39 12.03 23.57C12.4 24.35 13.18 24.75 13.77 24.47C14.36 24.19 14.53 23.32 14.16 22.55C14.07 22.36 14.15 22.13 14.33 22.04C14.52 21.95 14.75 22.03 14.84 22.22C15.39 23.37 15.06 24.69 14.1 25.15C13.87 25.26 13.62 25.31 13.38 25.31L13.38 25.31Z" />
				<path id="Layer" class="shp7" d="M21.29 24.69C21.02 24.69 20.73 24.63 20.46 24.5C19.95 24.26 19.53 23.82 19.27 23.28C19.18 23.09 19.26 22.87 19.45 22.78C19.63 22.69 19.86 22.77 19.95 22.95C20.14 23.34 20.43 23.65 20.78 23.82C21.1 23.97 21.42 23.98 21.69 23.85C21.96 23.72 22.16 23.46 22.24 23.11C22.32 22.74 22.27 22.32 22.08 21.93C21.99 21.74 22.07 21.51 22.26 21.42C22.44 21.33 22.67 21.41 22.76 21.6C23.02 22.14 23.1 22.74 22.97 23.28C22.84 23.85 22.5 24.3 22.02 24.53C21.79 24.64 21.55 24.69 21.29 24.69L21.29 24.69Z" />
			</g>
			<path id="Layer" class="shp8" d="M9.64 21.94C9.56 21.94 9.47 21.93 9.39 21.89C9.07 21.75 8.93 21.38 9.06 21.07C9.17 20.81 9.29 20.56 9.42 20.33C9.59 20.02 9.97 19.91 10.27 20.07C10.58 20.23 10.69 20.62 10.53 20.92C10.42 21.13 10.31 21.34 10.22 21.56C10.11 21.8 9.88 21.94 9.64 21.94L9.64 21.94Z" />
			<path id="Layer" class="shp8" d="M8.81 27.03C8.49 27.03 8.21 26.78 8.18 26.46C8.08 25.4 8.16 24.28 8.41 23.15C8.48 22.81 8.82 22.59 9.16 22.67C9.49 22.74 9.71 23.08 9.63 23.42C9.41 24.42 9.34 25.41 9.43 26.34C9.47 26.68 9.21 26.99 8.87 27.02C8.85 27.03 8.83 27.03 8.81 27.03L8.81 27.03Z" />
			<path id="Layer" fill-rule="evenodd" class="shp7" d="M26.26 27.75C26.91 28.19 27.33 28.86 27.33 29.61C27.33 30.89 26.13 31.93 24.63 31.97C24.6 31.97 6.91 32 6.88 32C3.61 32 0.96 29.34 0.96 26.07L0.96 24.53C0.96 23.35 1.91 22.39 3.09 22.39C4.27 22.39 5.23 23.35 5.23 24.53L5.23 26.07C5.23 26.69 5.58 27.23 6.09 27.51C6.02 26.95 5.98 26.39 5.98 25.82C5.98 24.31 6.22 22.85 6.69 21.46C7.19 19.97 7.38 18.39 7.26 16.77C7.24 16.53 7.23 16.29 7.23 16.06C7.23 14.55 7.61 13.06 8.33 11.74L8.32 11.69C8.32 11.68 8.32 11.68 8.32 11.68C8.31 11.63 8.11 10.48 8.06 9.24C7.97 7.3 8.29 6.23 9.05 5.86C9.6 5.6 10.58 5.52 12.86 7.7C13.31 7.51 13.77 7.37 14.24 7.26C14.34 7.04 14.47 6.82 14.62 6.62C14.59 5.56 14.85 4.73 15.4 4.15C15.63 3.07 16 1.89 16.52 0.54C16.65 0.18 17.01 -0.04 17.39 0.01C17.77 0.05 18.06 0.35 18.1 0.73C18.31 2.01 18.36 2.94 18.28 3.7C18.6 4.41 18.64 5.12 18.41 5.83C18.59 6.34 18.66 6.85 18.61 7.36C18.84 7.42 19.07 7.49 19.3 7.57C21.49 5.52 22.44 5.61 22.97 5.86C23.66 6.2 23.98 7.08 23.99 8.66C23.99 9.58 23.88 10.53 23.79 11.14C24.74 12.59 25.25 14.26 25.27 15.99C25.27 16.3 25.25 16.62 25.22 16.93C25.07 18.5 25.25 20.09 25.76 21.68C26.18 23 26.4 24.39 26.4 25.82C26.4 26.47 26.35 27.12 26.26 27.75ZM2.21 26.07C2.21 26.33 2.23 26.58 2.27 26.83L4.08 26.83C4.01 26.59 3.98 26.33 3.98 26.07L3.98 25.74L2.21 25.74L2.21 26.07ZM2.21 24.53L2.21 24.98L3.98 24.98L3.98 24.53C3.98 24.04 3.58 23.65 3.09 23.65C2.61 23.65 2.21 24.04 2.21 24.53ZM6.9 30.74C6.67 30.16 6.48 29.55 6.34 28.92C5.52 28.77 4.83 28.27 4.41 27.58L2.46 27.58C3.09 29.42 4.83 30.74 6.88 30.74C6.89 30.74 6.89 30.74 6.9 30.74ZM24.55 30.72C25.38 30.72 26.08 30.21 26.08 29.61C26.08 29.01 25.38 28.51 24.55 28.51C24.2 28.51 23.92 28.23 23.92 27.88C23.92 27.53 24.2 27.25 24.55 27.25C24.72 27.25 24.89 27.27 25.06 27.29C25.11 26.81 25.14 26.31 25.14 25.82C25.14 24.52 24.95 23.26 24.56 22.06C24.01 20.31 23.81 18.55 23.97 16.81C24 16.54 24.01 16.27 24.01 16C24 14.44 23.52 12.93 22.62 11.64C22.53 11.51 22.49 11.35 22.52 11.19C22.59 10.68 22.73 9.69 22.73 8.73C22.74 7.24 22.43 7 22.43 6.99C22.29 6.95 21.51 7.17 19.88 8.75C19.7 8.93 19.43 8.98 19.2 8.88C19.04 8.82 18.88 8.76 18.72 8.7C18.75 9.11 18.67 9.46 18.63 9.67C18.62 9.71 18.62 9.75 18.61 9.79C18.43 10.49 17.66 10.9 16.6 10.9C16.43 10.9 16.25 10.89 16.07 10.86C14.77 10.71 13.92 10.1 13.9 9.29C13.9 9.26 13.9 9.23 13.9 9.2C13.89 9.01 13.89 8.83 13.9 8.66C13.6 8.75 13.29 8.87 12.99 9.01C12.75 9.12 12.47 9.07 12.29 8.89C10.57 7.19 9.75 6.95 9.6 7C9.6 7 9.22 7.3 9.31 9.25C9.36 10.34 9.54 11.38 9.55 11.45L9.61 11.73C9.63 11.88 9.61 12.03 9.53 12.16C8.85 13.34 8.49 14.69 8.49 16.06C8.49 16.26 8.49 16.47 8.51 16.67C8.65 18.47 8.44 20.21 7.88 21.87C7.45 23.12 7.24 24.45 7.24 25.82C7.24 27.53 7.58 29.22 8.25 30.72L14.63 30.72C14.66 30.72 14.69 30.72 14.72 30.72C15.55 30.72 16.25 30.21 16.25 29.61C16.25 29.01 15.55 28.51 14.72 28.51C14.37 28.51 14.09 28.23 14.09 27.88C14.09 27.53 14.37 27.25 14.72 27.25C16.25 27.25 17.5 28.31 17.5 29.61C17.5 30.01 17.38 30.39 17.17 30.72L24.46 30.72C24.49 30.72 24.52 30.72 24.55 30.72ZM17.06 2.78C16.94 3.16 16.84 3.52 16.76 3.87L17.01 3.75C17.01 3.74 17.01 3.73 17.01 3.73C17.01 3.72 17.01 3.72 17.02 3.72C17.06 3.43 17.07 3.11 17.06 2.78ZM15.88 6.25L17.13 5.7C17.14 5.66 17.15 5.63 17.16 5.6C17.32 5.22 17.34 4.85 17.23 4.48L16.51 4.8C16.48 4.85 16.44 4.89 16.4 4.93C16.07 5.22 15.9 5.65 15.88 6.25ZM15.73 7.23C15.41 7.61 15.22 8.07 15.17 8.62L17.25 7.8C17.25 7.79 17.25 7.78 17.25 7.77C17.4 7.33 17.41 6.89 17.29 6.45L15.83 7.09C15.8 7.14 15.77 7.19 15.73 7.23ZM15.33 9.37C15.53 9.48 15.88 9.6 16.37 9.63C16.99 9.68 17.32 9.53 17.39 9.47C17.39 9.45 17.4 9.43 17.4 9.42C17.45 9.18 17.51 8.87 17.42 8.54L15.33 9.37Z" />
		</g>
	</g>
</svg>