 
<svg xmlns="http://www.w3.org/2000/svg" viewBox="0 0 48 48"><path fill="#f0af13" d="M6.369,6.198l10.884,6.787l-11.454,8.91c-0.746-2.007-1.541-4.841-1.722-8.295	c-0.128-2.443,0.011-6.598,0.974-7.416C5.389,5.898,5.933,5.926,6.369,6.198z"></path><radialGradient id="V~FgzmqbkRQoBfEdi4A4Qa" cx="1132.745" cy="21.872" r="4.272" fx="1133.492" fy="21.668" gradientTransform="matrix(.9988 -.0093 .0095 .9898 -1127.796 1.079)" gradientUnits="userSpaceOnUse"><stop offset="0" stop-color="#e89b9b"></stop><stop offset=".509" stop-color="#e84a4a"></stop><stop offset=".582" stop-color="#e34848"></stop><stop offset=".667" stop-color="#d54242"></stop><stop offset=".759" stop-color="#be3937"></stop><stop offset=".854" stop-color="#9d2b29"></stop><stop offset=".951" stop-color="#741a17"></stop><stop offset=".984" stop-color="#641410"></stop></radialGradient><path fill="url(#V~FgzmqbkRQoBfEdi4A4Qa)" d="M6.119,8.113l5.169,3.452L5.82,17.053c-0.351-1.017-0.725-3.452-0.805-5.199	c-0.057-1.236,0.017-3.338,0.477-3.75C5.653,7.959,5.912,7.974,6.119,8.113z"></path><path fill="#f0af13" d="M41.65,6.247l-10.884,6.787l11.454,8.91c0.746-2.007,1.541-4.841,1.722-8.295	c0.128-2.443-0.011-6.598-0.974-7.416C42.63,5.947,42.086,5.975,41.65,6.247z"></path><radialGradient id="V~FgzmqbkRQoBfEdi4A4Qb" cx="166.484" cy="12.788" r="4.272" fx="167.232" fy="12.584" gradientTransform="matrix(-.9988 -.0093 -.0095 .9898 210.545 1.079)" gradientUnits="userSpaceOnUse"><stop offset="0" stop-color="#e89b9b"></stop><stop offset=".509" stop-color="#e84a4a"></stop><stop offset=".582" stop-color="#e34848"></stop><stop offset=".667" stop-color="#d54242"></stop><stop offset=".759" stop-color="#be3937"></stop><stop offset=".854" stop-color="#9d2b29"></stop><stop offset=".951" stop-color="#741a17"></stop><stop offset=".984" stop-color="#641410"></stop></radialGradient><path fill="url(#V~FgzmqbkRQoBfEdi4A4Qb)" d="M41.863,8.113l-5.169,3.452l5.468,5.489c0.351-1.017,0.725-3.452,0.805-5.199	c0.057-1.236-0.017-3.338-0.477-3.75C42.329,7.959,42.07,7.974,41.863,8.113z"></path><radialGradient id="V~FgzmqbkRQoBfEdi4A4Qc" cx="31.893" cy="36.007" r="18.865" gradientTransform="matrix(.9777 0 0 .8334 -7.058 -6.095)" gradientUnits="userSpaceOnUse"><stop offset="0" stop-color="#ffe16e"></stop><stop offset=".629" stop-color="#ffd226"></stop><stop offset=".75" stop-color="#fdcd23"></stop><stop offset=".899" stop-color="#f6bd1b"></stop><stop offset=".999" stop-color="#f0af13"></stop></radialGradient><path fill="url(#V~FgzmqbkRQoBfEdi4A4Qc)" d="M24.447,7.105c-0.223-0.006-0.67-0.006-0.893,0C15.55,7.314,4,12.41,4,23.333	c0,2.646,0.644,5.315,1.758,7.163c3.6,5.971,14.997,10.727,14.997,10.727c0.669,0.322,2.069,0.626,2.794,0.755	c0.301,0.054,0.6,0.054,0.901,0c0.726-0.13,2.126-0.434,2.794-0.755c0,0,11.396-4.757,14.997-10.727	C43.356,28.648,44,25.979,44,23.333C44,12.41,32.45,7.314,24.447,7.105z"></path><path fill="#d38b0b" d="M24.447,7.105c-0.223-0.006-0.67-0.006-0.893,0c-0.504,0.013-1.022,0.046-1.55,0.098	c0.031,4.332,1.136,7.816,2.497,7.816c1.348,0,2.444-3.418,2.495-7.693C26.12,7.201,25.264,7.126,24.447,7.105z"></path><path fill="#d38b0b" d="M16.222,8.488c0.332,2.095,1.003,3.53,1.778,3.53c0.891,0,1.645-1.894,1.904-4.51	C18.689,7.737,17.449,8.062,16.222,8.488z"></path><path fill="#d38b0b" d="M32.717,8.838c-1.188-0.467-2.399-0.839-3.597-1.116c0.278,2.504,1.013,4.297,1.88,4.297	C31.731,12.018,32.368,10.74,32.717,8.838z"></path><radialGradient id="V~FgzmqbkRQoBfEdi4A4Qd" cx="24.03" cy="32.274" r="3.555" gradientTransform="matrix(.0227 .9997 -4.7791 .1086 177.723 4.745)" gradientUnits="userSpaceOnUse"><stop offset=".629" stop-color="#ffe16e"></stop><stop offset=".871" stop-color="#ffe16e" stop-opacity="0"></stop></radialGradient><path fill="url(#V~FgzmqbkRQoBfEdi4A4Qd)" d="M16.768,35.601c0,0,0.744,0.807,7.229,0.807c6.007,0,7.224-0.807,7.224-0.807 S28.766,34,23.997,34C19.091,34,16.768,35.601,16.768,35.601z"></path><radialGradient id="V~FgzmqbkRQoBfEdi4A4Qe" cx="296.098" cy="13.931" r="7.985" gradientTransform="matrix(-1 0 0 -.4017 320 39.665)" gradientUnits="userSpaceOnUse"><stop offset=".284" stop-color="#cc9000"></stop><stop offset="1" stop-color="#cc9000" stop-opacity="0"></stop></radialGradient><path fill="url(#V~FgzmqbkRQoBfEdi4A4Qe)" d="M23.997,35.204c6.608,0,7.193,0.733,7.193,0.733s-0.511,1.674-7.193,1.674 s-7.193-1.674-7.193-1.674S17.39,35.204,23.997,35.204z"></path><radialGradient id="V~FgzmqbkRQoBfEdi4A4Qf" cx="295.987" cy="13.534" r="8.573" gradientTransform="matrix(-1 0 0 -.3754 320 39.547)" gradientUnits="userSpaceOnUse"><stop offset="0" stop-color="#1c1911"></stop><stop offset=".999" stop-color="#171714"></stop></radialGradient><path fill="url(#V~FgzmqbkRQoBfEdi4A4Qf)" d="M16.805,35.561c-0.654,0.266-1.04-0.516-0.575-1.047c1.489-1.704,3.755-4.126,7.768-4.126 s6.269,2.41,7.768,4.126c0.533,0.611,0.078,1.313-0.575,1.047C29.186,34.747,27.576,34,23.997,34S18.809,34.747,16.805,35.561z"></path><path fill="#fff" d="M16.5,16c-1.933,0-3.5,1.791-3.5,4c0,0.486,0.087,0.946,0.226,1.377C14.242,21.774,15.344,22,16.5,22	s2.258-0.226,3.274-0.623C19.913,20.946,20,20.486,20,20C20,17.791,18.433,16,16.5,16z"></path><path fill="#212121" d="M16.5,18c-0.828,0-1.5,0.895-1.5,2c0,0.321,0.062,0.621,0.163,0.89C15.6,20.955,16.045,21,16.5,21	s0.9-0.045,1.337-0.11C17.938,20.621,18,20.321,18,20C18,18.895,17.328,18,16.5,18z"></path><path fill="#fff" d="M31.5,16c-1.933,0-3.5,1.791-3.5,4c0,0.486,0.087,0.946,0.226,1.377C29.242,21.774,30.344,22,31.5,22	s2.258-0.226,3.274-0.623C34.913,20.946,35,20.486,35,20C35,17.791,33.433,16,31.5,16z"></path><path fill="#212121" d="M31.5,18c-0.828,0-1.5,0.895-1.5,2c0,0.321,0.062,0.621,0.163,0.89C30.6,20.955,31.045,21,31.5,21	s0.9-0.045,1.337-0.11C32.938,20.621,33,20.321,33,20C33,18.895,32.328,18,31.5,18z"></path><path fill="#261714" d="M27,25c0,0.552-2,3-3,3s-3-2.448-3-3s1.343-1,3-1S27,24.448,27,25z"></path><path fill="#291916" d="M26.95,24.991c0,0.543-1.967,2.95-2.95,2.95s-2.95-2.407-2.95-2.95c0-0.543,1.321-0.983,2.95-0.983 S26.95,24.448,26.95,24.991z"></path><path fill="#2b1b17" d="M26.9,24.982c0,0.534-1.934,2.9-2.9,2.9s-2.9-2.366-2.9-2.9c0-0.534,1.299-0.967,2.9-0.967 S26.9,24.448,26.9,24.982z"></path><path fill="#2e1d19" d="M26.851,24.973c0,0.525-1.9,2.851-2.851,2.851s-2.851-2.326-2.851-2.851s1.276-0.95,2.851-0.95 S26.851,24.448,26.851,24.973z"></path><path fill="#301f1a" d="M26.801,24.964c0,0.516-1.867,2.801-2.801,2.801s-2.801-2.285-2.801-2.801s1.254-0.934,2.801-0.934 S26.801,24.449,26.801,24.964z"></path><path fill="#33221c" d="M26.751,24.955c0,0.506-1.834,2.751-2.751,2.751s-2.751-2.245-2.751-2.751s1.232-0.917,2.751-0.917 S26.751,24.449,26.751,24.955z"></path><path fill="#35241d" d="M26.701,24.947c0,0.497-1.801,2.701-2.701,2.701s-2.701-2.204-2.701-2.701 c0-0.497,1.209-0.9,2.701-0.9S26.701,24.449,26.701,24.947z"></path><path fill="#38261f" d="M26.652,24.938c0,0.488-1.768,2.652-2.652,2.652s-2.652-2.163-2.652-2.652 c0-0.488,1.187-0.884,2.652-0.884S26.652,24.449,26.652,24.938z"></path><path fill="#3b2820" d="M26.602,24.929c0,0.479-1.734,2.602-2.602,2.602s-2.602-2.123-2.602-2.602s1.165-0.867,2.602-0.867 S26.602,24.45,26.602,24.929z"></path><path fill="#3d2a22" d="M26.552,24.92c0,0.47-1.701,2.552-2.552,2.552s-2.552-2.082-2.552-2.552s1.143-0.851,2.552-0.851 S26.552,24.45,26.552,24.92z"></path><path fill="#402c23" d="M26.502,24.911c0,0.461-1.668,2.502-2.502,2.502s-2.502-2.042-2.502-2.502s1.12-0.834,2.502-0.834 S26.502,24.45,26.502,24.911z"></path><path fill="#422e25" d="M26.452,24.902c0,0.451-1.635,2.452-2.452,2.452s-2.452-2.001-2.452-2.452 c0-0.451,1.098-0.817,2.452-0.817S26.452,24.451,26.452,24.902z"></path><path fill="#453026" d="M26.403,24.893c0,0.442-1.602,2.403-2.403,2.403s-2.403-1.96-2.403-2.403 c0-0.442,1.076-0.801,2.403-0.801S26.403,24.451,26.403,24.893z"></path><path fill="#473228" d="M26.353,24.884c0,0.433-1.569,2.353-2.353,2.353s-2.353-1.92-2.353-2.353 c0-0.433,1.053-0.784,2.353-0.784S26.353,24.451,26.353,24.884z"></path><path fill="#4a3429" d="M26.303,24.875c0,0.424-1.535,2.303-2.303,2.303s-2.303-1.879-2.303-2.303 c0-0.424,1.031-0.768,2.303-0.768S26.303,24.451,26.303,24.875z"></path><path fill="#4d372b" d="M26.253,24.866c0,0.415-1.502,2.253-2.253,2.253s-2.253-1.838-2.253-2.253s1.009-0.751,2.253-0.751 S26.253,24.452,26.253,24.866z"></path><path fill="#4f392c" d="M26.204,24.857c0,0.406-1.469,2.203-2.204,2.203s-2.204-1.798-2.204-2.203s0.987-0.735,2.204-0.735 S26.204,24.452,26.204,24.857z"></path><path fill="#523b2e" d="M26.154,24.849c0,0.396-1.436,2.154-2.154,2.154s-2.154-1.757-2.154-2.154s0.964-0.718,2.154-0.718 S26.154,24.452,26.154,24.849z"></path><path fill="#543d2f" d="M26.104,24.84c0,0.387-1.403,2.104-2.104,2.104s-2.104-1.717-2.104-2.104 c0-0.387,0.942-0.701,2.104-0.701S26.104,24.452,26.104,24.84z"></path><path fill="#573f31" d="M26.054,24.831c0,0.378-1.369,2.054-2.054,2.054s-2.054-1.676-2.054-2.054 c0-0.378,0.92-0.685,2.054-0.685S26.054,24.453,26.054,24.831z"></path><path fill="#594132" d="M26.004,24.822c0,0.369-1.336,2.004-2.004,2.004s-2.004-1.635-2.004-2.004s0.897-0.668,2.004-0.668 S26.004,24.453,26.004,24.822z"></path><path fill="#5c4334" d="M25.955,24.813c0,0.36-1.303,1.955-1.955,1.955s-1.955-1.595-1.955-1.955s0.875-0.652,1.955-0.652 S25.955,24.453,25.955,24.813z"></path><path fill="#5f4535" d="M25.905,24.804c0,0.351-1.27,1.905-1.905,1.905s-1.905-1.554-1.905-1.905s0.853-0.635,1.905-0.635 S25.905,24.453,25.905,24.804z"></path><path fill="#614737" d="M25.855,24.795c0,0.342-1.237,1.855-1.855,1.855s-1.855-1.514-1.855-1.855 c0-0.342,0.831-0.618,1.855-0.618S25.855,24.454,25.855,24.795z"></path><path fill="#644938" d="M25.805,24.786c0,0.332-1.204,1.805-1.805,1.805s-1.805-1.473-1.805-1.805 c0-0.332,0.808-0.602,1.805-0.602S25.805,24.454,25.805,24.786z"></path><path fill="#664c3a" d="M25.755,24.777c0,0.323-1.17,1.755-1.755,1.755s-1.755-1.432-1.755-1.755S23.03,24.192,24,24.192 S25.755,24.454,25.755,24.777z"></path><path fill="#694e3b" d="M25.706,24.768c0,0.314-1.137,1.706-1.706,1.706s-1.706-1.392-1.706-1.706S23.058,24.2,24,24.2 S25.706,24.454,25.706,24.768z"></path><path fill="#6b503d" d="M25.656,24.759c0,0.305-1.104,1.656-1.656,1.656s-1.656-1.351-1.656-1.656s0.741-0.552,1.656-0.552 S25.656,24.455,25.656,24.759z"></path><path fill="#6e523e" d="M25.606,24.751c0,0.296-1.071,1.606-1.606,1.606s-1.606-1.31-1.606-1.606s0.719-0.535,1.606-0.535 S25.606,24.455,25.606,24.751z"></path><path fill="#715440" d="M25.556,24.742c0,0.287-1.038,1.556-1.556,1.556s-1.556-1.27-1.556-1.556S23.14,24.223,24,24.223 S25.556,24.455,25.556,24.742z"></path><path fill="#735641" d="M25.507,24.733c0,0.277-1.004,1.507-1.507,1.507s-1.507-1.229-1.507-1.507 c0-0.277,0.675-0.502,1.507-0.502S25.507,24.455,25.507,24.733z"></path><path fill="#765843" d="M25.457,24.724c0,0.268-0.971,1.457-1.457,1.457s-1.457-1.189-1.457-1.457 c0-0.268,0.652-0.486,1.457-0.486S25.457,24.456,25.457,24.724z"></path><path fill="#785a44" d="M25.407,24.715c0,0.259-0.938,1.407-1.407,1.407s-1.407-1.148-1.407-1.407s0.63-0.469,1.407-0.469 S25.407,24.456,25.407,24.715z"></path><path fill="#7b5c46" d="M25.357,24.706c0,0.25-0.905,1.357-1.357,1.357s-1.357-1.107-1.357-1.357S23.25,24.254,24,24.254 S25.357,24.456,25.357,24.706z"></path><path fill="#7d5e47" d="M25.307,24.697c0,0.241-0.872,1.307-1.307,1.307s-1.307-1.067-1.307-1.307s0.585-0.436,1.307-0.436 S25.307,24.456,25.307,24.697z"></path><path fill="#806149" d="M25.258,24.688c0,0.232-0.838,1.258-1.258,1.258s-1.258-1.026-1.258-1.258 c0-0.232,0.563-0.419,1.258-0.419S25.258,24.457,25.258,24.688z"></path><path fill="#83634a" d="M25.208,24.679c0,0.222-0.805,1.208-1.208,1.208s-1.208-0.986-1.208-1.208 c0-0.222,0.541-0.403,1.208-0.403S25.208,24.457,25.208,24.679z"></path><path fill="#85654c" d="M25.158,24.67c0,0.213-0.772,1.158-1.158,1.158s-1.158-0.945-1.158-1.158S23.36,24.284,24,24.284 S25.158,24.457,25.158,24.67z"></path><path fill="#88674d" d="M25.108,24.661c0,0.204-0.739,1.108-1.108,1.108s-1.108-0.904-1.108-1.108s0.496-0.369,1.108-0.369 S25.108,24.457,25.108,24.661z"></path><path fill="#8a694f" d="M25.059,24.652c0,0.195-0.706,1.059-1.059,1.059s-1.059-0.864-1.059-1.059S23.415,24.3,24,24.3 S25.059,24.458,25.059,24.652z"></path><path fill="#8d6b50" d="M25.009,24.644c0,0.186-0.673,1.009-1.009,1.009s-1.009-0.823-1.009-1.009 c0-0.186,0.452-0.336,1.009-0.336S25.009,24.458,25.009,24.644z"></path><path fill="#8f6d52" d="M24.959,24.635c0,0.177-0.639,0.959-0.959,0.959s-0.959-0.782-0.959-0.959 c0-0.177,0.429-0.32,0.959-0.32S24.959,24.458,24.959,24.635z"></path><path fill="#926f53" d="M24.909,24.626c0,0.167-0.606,0.909-0.909,0.909s-0.909-0.742-0.909-0.909s0.407-0.303,0.909-0.303 S24.909,24.458,24.909,24.626z"></path><path fill="#957155" d="M24.859,24.617c0,0.158-0.573,0.859-0.859,0.859s-0.859-0.701-0.859-0.859S23.525,24.33,24,24.33 S24.859,24.459,24.859,24.617z"></path><path fill="#977356" d="M24.81,24.608c0,0.149-0.54,0.81-0.81,0.81s-0.81-0.661-0.81-0.81s0.362-0.27,0.81-0.27 S24.81,24.459,24.81,24.608z"></path><path fill="#9a7658" d="M24.76,24.599c0,0.14-0.507,0.76-0.76,0.76s-0.76-0.62-0.76-0.76s0.34-0.253,0.76-0.253 S24.76,24.459,24.76,24.599z"></path><path fill="#9c7859" d="M24.71,24.59c0,0.131-0.473,0.71-0.71,0.71s-0.71-0.579-0.71-0.71s0.318-0.237,0.71-0.237 S24.71,24.459,24.71,24.59z"></path><path fill="#9f7a5b" d="M24.66,24.581c0,0.122-0.44,0.66-0.66,0.66s-0.66-0.539-0.66-0.66c0-0.122,0.296-0.22,0.66-0.22 S24.66,24.46,24.66,24.581z"></path><path fill="#a17c5c" d="M24.611,24.572c0,0.112-0.407,0.61-0.611,0.61s-0.611-0.498-0.611-0.61 c0-0.112,0.273-0.204,0.611-0.204S24.611,24.46,24.611,24.572z"></path><path fill="#a47e5e" d="M24.561,24.563c0,0.103-0.374,0.561-0.561,0.561s-0.561-0.457-0.561-0.561S23.69,24.376,24,24.376 S24.561,24.46,24.561,24.563z"></path><linearGradient id="V~FgzmqbkRQoBfEdi4A4Qg" x1="15.272" x2="9.272" y1="25.875" y2="26.281" gradientUnits="userSpaceOnUse"><stop offset="0" stop-color="#d38b0b" stop-opacity="0"></stop><stop offset="1" stop-color="#c9800a"></stop></linearGradient><path fill="url(#V~FgzmqbkRQoBfEdi4A4Qg)" d="M0.737,26.612l14.951-1.273c0.279-0.024,0.524,0.183,0.548,0.462	c0.024,0.279-0.183,0.524-0.462,0.548c-0.008,0.001-0.017,0.001-0.025,0.002L0.753,26.888c-0.076,0.003-0.14-0.057-0.143-0.133	C0.608,26.681,0.664,26.618,0.737,26.612z"></path><linearGradient id="V~FgzmqbkRQoBfEdi4A4Qh" x1="15.487" x2="8.987" y1="26.862" y2="28.768" gradientUnits="userSpaceOnUse"><stop offset="0" stop-color="#d38b0b" stop-opacity="0"></stop><stop offset="1" stop-color="#c9800a"></stop></linearGradient><path fill="url(#V~FgzmqbkRQoBfEdi4A4Qh)" d="M2.704,30.701l13.016-4.435c0.265-0.09,0.553,0.051,0.643,0.316	c0.09,0.265-0.051,0.553-0.316,0.643c-0.008,0.003-0.018,0.006-0.026,0.008L2.786,30.965c-0.074,0.021-0.15-0.022-0.171-0.096	C2.595,30.799,2.635,30.725,2.704,30.701z"></path><linearGradient id="V~FgzmqbkRQoBfEdi4A4Qi" x1="-967.505" x2="-974.005" y1="26.814" y2="28.72" gradientTransform="matrix(-1 0 0 1 -935.157 0)" gradientUnits="userSpaceOnUse"><stop offset="0" stop-color="#d38b0b" stop-opacity="0"></stop><stop offset="1" stop-color="#c9800a"></stop></linearGradient><path fill="url(#V~FgzmqbkRQoBfEdi4A4Qi)" d="M45.296,30.701L32.28,26.266c-0.265-0.09-0.553,0.051-0.643,0.316	c-0.09,0.265,0.051,0.553,0.316,0.643c0.008,0.003,0.018,0.006,0.026,0.008l13.234,3.732c0.074,0.021,0.15-0.022,0.171-0.096	C45.405,30.799,45.365,30.725,45.296,30.701z"></path><linearGradient id="V~FgzmqbkRQoBfEdi4A4Qj" x1="15.759" x2="9.947" y1="24.846" y2="23.659" gradientUnits="userSpaceOnUse"><stop offset="0" stop-color="#d38b0b" stop-opacity="0"></stop><stop offset="1" stop-color="#c9800a"></stop></linearGradient><path fill="url(#V~FgzmqbkRQoBfEdi4A4Qj)" d="M1.096,22.288l14.707,1.848c0.278,0.035,0.475,0.288,0.44,0.566	c-0.035,0.278-0.288,0.475-0.566,0.44c-0.008-0.001-0.017-0.002-0.025-0.004L1.054,22.562c-0.075-0.013-0.125-0.085-0.112-0.16	C0.955,22.329,1.023,22.279,1.096,22.288z"></path><linearGradient id="V~FgzmqbkRQoBfEdi4A4Qk" x1="-967.885" x2="-973.885" y1="25.875" y2="26.281" gradientTransform="matrix(-1 0 0 1 -935.157 0)" gradientUnits="userSpaceOnUse"><stop offset="0" stop-color="#d38b0b" stop-opacity="0"></stop><stop offset="1" stop-color="#c9800a"></stop></linearGradient><path fill="url(#V~FgzmqbkRQoBfEdi4A4Qk)" d="M47.263,26.612l-14.951-1.273c-0.279-0.024-0.524,0.183-0.548,0.462	c-0.024,0.279,0.183,0.524,0.462,0.548c0.008,0.001,0.017,0.001,0.025,0.002l14.996,0.538c0.076,0.003,0.14-0.057,0.143-0.133	C47.392,26.681,47.336,26.618,47.263,26.612z"></path><linearGradient id="V~FgzmqbkRQoBfEdi4A4Ql" x1="-967.398" x2="-973.21" y1="24.846" y2="23.659" gradientTransform="matrix(-1 0 0 1 -935.157 0)" gradientUnits="userSpaceOnUse"><stop offset="0" stop-color="#d38b0b" stop-opacity="0"></stop><stop offset="1" stop-color="#c9800a"></stop></linearGradient><path fill="url(#V~FgzmqbkRQoBfEdi4A4Ql)" d="M46.904,22.288l-14.707,1.848c-0.278,0.035-0.475,0.288-0.44,0.566	c0.035,0.278,0.288,0.475,0.566,0.44c0.008-0.001,0.017-0.002,0.025-0.004l14.597-2.577c0.075-0.013,0.125-0.085,0.112-0.16	C47.045,22.329,46.977,22.279,46.904,22.288z"></path><radialGradient id="V~FgzmqbkRQoBfEdi4A4Qm" cx="-.945" cy="59.205" r="4.566" fx="-.901" fy="61.779" gradientTransform="matrix(-.8296 0 0 1.2448 30.748 -43.339)" gradientUnits="userSpaceOnUse"><stop offset="0" stop-color="#63e2ff"></stop><stop offset=".371" stop-color="#51cdfc"></stop><stop offset="1" stop-color="#2aa1f7"></stop></radialGradient><path fill="url(#V~FgzmqbkRQoBfEdi4A4Qm)" d="M28,32.4c0,1.988,1.567,3.6,3.5,3.6s3.5-1.612,3.5-3.6c0-2.88-2.8-8.4-3.5-8.4	C30.8,24,28,29.52,28,32.4z"></path></svg>