<svg version="1.1"
      xmlns="http://www.w3.org/2000/svg"
      xmlns:xlink="http://www.w3.org/1999/xlink"  id="snapshot-35169" width="250" height="250" viewBox="0 0 250 250"><desc>This image was made on Patterninja.com</desc><defs>
<!-- image 82526 -->
<g id="transformed-82526" data-image="82526" transform="translate(208.28145385699534, -11.71854614300463) rotate(335, 40.718546143004666, 40.71854614300463)"><g><svg version="1.1" width="81.43709228600933px" height="81.43709228600926px" viewBox="0 0 81.43709228600933 81.43709228600926"><g id="original-82526"><svg xmlns="http://www.w3.org/2000/svg" viewBox="0 0 128 128" xmlns:xlink="http://www.w3.org/1999/xlink" version="1.1" preserveAspectRatio="xMidYMid meet">
  <path d="M99.855 50.941a2.94 2.94 0 0 0-1.955.86L93.6 56.1C90.5 59.3 86.4 61 82 61c-4.4 0-8.5-1.7-11.5-4.8l-4.3-4.3c-.7-.7-1.8-1-2.7-.8-1 .2-1.8.9-2.2 1.9l-19.8 51.3c-2 5.1-1.3 10.9 1.8 15.5.3.4.6.9 1 1.3H14.7c-2.6 0-4.7-2.1-4.7-4.7 0-1.4.6-2.8 1.8-3.7 1.1-.9 2.6-1.2 4-.9l14.5 3.2c1.6.4 3.2-.7 3.6-2.3.4-1.6-.7-3.2-2.3-3.6l-14.4-3.2c-3.2-.7-6.5 0-9.1 2.1-2.6 2-4 5.1-4 8.4C4 122.2 8.8 127 14.7 127H57c1.7 0 3-1.3 3-3s-1.3-3-3-3c-3.6 0-6.8-1.7-8.8-4.7-2-3-2.5-6.6-1.2-9.9l18.1-47 1.1 1.1C70.4 64.7 76 67 82 67s11.6-2.3 15.8-6.5l1.1-1.1 18.1 47c1.3 3.3.9 7-1.2 9.9-2.1 2.9-5.3 4.7-8.8 4.7h-7.4c-1.3-4.3-5.3-7.5-10.1-7.5-2.9 0-5.6 1.2-7.5 3.2l-.1-.1c-2-2-4.6-3.1-7.4-3.1-2.8 0-5.4 1.1-7.4 3.1S64 121.2 64 124c0 1.7 1.3 3 3 3s3-1.3 3-3c0-1.2.5-2.3 1.3-3.2.8-.9 2-1.3 3.2-1.3 1.2 0 2.3.5 3.2 1.3.8.8 1.3 1.9 1.3 3.1V124.2c.1 1.6 1.5 2.9 3.1 2.8 1.6 0 2.9-1.4 2.9-3v-.1c0-2.4 2-4.4 4.5-4.4s4.5 2 4.5 4.5c0 1.7 1.3 3 3 3h10c5.5 0 10.7-2.7 13.8-7.3 3.1-4.5 3.8-10.3 1.8-15.5l-19.8-51.3c-.4-.9-1.2-1.6-2.2-1.9-.25-.05-.5-.07-.745-.059zM72 81a3 3 0 0 0-3 3 3 3 0 0 0 3 3 3 3 0 0 0 3-3 3 3 0 0 0-3-3zm20 0a3 3 0 0 0-3 3 3 3 0 0 0 3 3 3 3 0 0 0 3-3 3 3 0 0 0-3-3z" fill="rgba(0, 0, 0, 1)" stroke="none"/>
</svg>
</g></svg></g></g>
<!-- /image 82526 -->

<!-- image 62281 -->
<g id="transformed-62281" data-image="62281" transform="translate(98.81435423662163, 167.81435423662163) rotate(317, 43.18564576337837, 43.18564576337836)"><g><svg version="1.1" width="86.37129152675674px" height="86.37129152675672px" viewBox="0 0 86.37129152675674 86.37129152675672"><g id="original-62281"><svg xmlns="http://www.w3.org/2000/svg" viewBox="0 0 24 24" xmlns:xlink="http://www.w3.org/1999/xlink" version="1.1" preserveAspectRatio="xMidYMid meet">
  <path d="M20.398 20.3c0 1.598-1 2.4-3 2.4-1.699 0-3.199-.598-5.199-.598-1.898 0-3 .898-5.097.898-1.903 0-2.704-1.398-2.704-2.398 0-2 1.5-2.301 3.204-4C9.199 14.898 10.199 13 12 13c2.102 0 2.7 2.2 4.2 4 1.3 1.5 4.198 1.398 4.198 3.3zm-4.5-10.402c2.204 0 3.403-2.597 3.403-5.199C19.3 2.2 17.699 1 16.6 1c-2.3 0-3.402 2.3-3.402 3.8 0 1.598.602 5.098 2.7 5.098zM8 9.898c2 0 2.5-2.597 2.5-5.199 0-1.8-1.2-3.398-2.398-3.398C6 1.3 5 3.5 5 5.3c-.102 1.597 1.2 4.597 3 4.597zm-2.3 2.5C5.7 10.7 4.3 9.102 3 9.102c-1.3 0-3 2.097-3 4.296C0 14.801 1.2 17 2.898 17 4.5 17 5.7 14.8 5.7 12.398zm16.8-3.296c-1.3-.301-2.7.898-3.898 3-1.403 2.5-.602 4.398 1.097 4.796 1.602.403 3.2-1.199 4.102-3.398.597-1.8 0-4.102-1.301-4.398z" fill="rgba(0, 0, 0, 1)" stroke="none"/>
</svg>
</g></svg></g></g>
<!-- /image 62281 -->

<!-- image 09560 -->
<g id="transformed-09560" data-image="09560" transform="translate(111.19832638913152, 35.19832638913156) rotate(15, 47.80167361086848, 47.80167361086844)"><g><svg version="1.1" width="95.60334722173695px" height="95.60334722173688px" viewBox="0 0 95.60334722173695 95.60334722173688"><g id="original-09560"><svg xmlns="http://www.w3.org/2000/svg" viewBox="0 0 80 80" xmlns:xlink="http://www.w3.org/1999/xlink" version="1.1" preserveAspectRatio="xMidYMid meet">
  <path d="M46.758 6.07c-4.017.163-7.598 1.773-9.91 4.412-2.228 2.543-3.174 6.078-2.215 9.916l-1.463 3.123c-3.607.195-9.147.98-13.79 4.325-4.862 3.503-8.44 9.843-7.081 20.404l.04 1.092v.082c-1.835.517-3.572 1.369-4.886 2.78C5.946 53.821 5 56.073 5 58.843c0 3.716 2.258 7.103 5.795 8.843 1.75.862 3.68 1.28 5.687 1.28 4.017 0 8.327-1.655 12.346-4.746a3.015 3.015 0 0 0 .549-4.207c-1.003-1.303-2.905-1.555-4.209-.547-4.396 3.38-8.792 4.283-11.723 2.838a1 1 0 0 0-.002 0C11.88 61.534 11 60.186 11 58.844c0-1.738.61-2.502 1.457-3.041.845-.538 2.02-.742 2.941-.803H53v11a1 1 0 1 0 2 0V54.168a1 1 0 0 0-.293-.889 1 1 0 0 0-.002-.002 1 1 0 0 0-.006-.006 1 1 0 0 0-.008-.007 1 1 0 0 0-.707-.278 1 1 0 0 0-.144.014H48.52a5.488 5.488 0 0 0-.433-1.34c-.479-.992-1.643-1.89-3.242-2.21-.685-2.353-.951-6.123-1.041-8.36.228.056.437.117.685.17.967.204 2.063.372 3.145.515 2.164.288 4.37.51 4.984.643.379.082.629.407.822.88.194.475.24.93.24.93l.008.084.022.083c.42 1.572 1.955 2.344 3.375 2.4 1.42.056 2.965-.5 3.773-1.863l.235-.397-.147-.433s-1.633-5.423-5.94-6.942c-3.047-1.075-8.167-4.394-9.034-4.963a10.51 10.51 0 0 0-1.33-3.65l.675-1.496c1.828-.1 3.598-.54 5-1.51 1.582-1.094 2.686-2.858 2.686-5.033 0-.7-.265-1.352-.64-1.74-.377-.388-.71-.54-.952-.721-.485-.362-.97-.767-1.256-2.967-.197-1.519-1.052-2.708-2.1-3.516-.68-.524-1.473-.732-2.243-1.013l1.833-2.953a1 1 0 0 0-.888-1.528zm-2.06 2.487l-1.177 1.89a1 1 0 0 0 .622 1.502c.962.226 1.957.632 2.693 1.2.736.567 1.213 1.242 1.336 2.187.329 2.532 1.264 3.732 2.045 4.314.39.292.65.448.71.51.061.062.077.003.077.348 0 1.537-.675 2.593-1.824 3.388-1.15.796-2.806 1.246-4.545 1.243a1 1 0 0 0-.914.59l-1.086 2.408a1 1 0 0 0 .078.965 8.157 8.157 0 0 1 1.38 4.546 8.16 8.16 0 0 1-2.087 5.463 1 1 0 0 0-.254.682c.031 1.86.152 7.36 1.27 10.713a1 1 0 0 0 .949.683c1.492 0 1.968.623 2.314 1.34.11.23.062.259.115.469h-4.277c-2.709-4.226-3.839-8.123-4.246-10.385a1 1 0 0 0-1.088-.816c.065-.007-1.892.072-2.977.11.005-.086.016-.17-.001-.257-.12-.55-.65-.89-1.18-.78-.55.11-.891.65-.781 1.19.035.165.119.3.22.42a1 1 0 0 0-.113.458c0 3.317-2.098 4.757-2.605 5.062H25a1 1 0 1 0 0 2h4.475a1 1 0 0 0 .158.012L30.998 50c.924 0 1.913.48 2.66 1.254.487.504.79 1.12.988 1.746H15.342a1 1 0 0 0-.067.002c-1.078.07-2.569.272-3.892 1.115C10.059 54.96 9 56.553 9 58.844c0 2.207 1.423 4.2 3.56 5.254 3.905 1.926 9.06.62 13.829-3.047a1 1 0 0 0 .002 0 .985.985 0 0 1 1.402.183.986.986 0 0 1-.184 1.403c-3.743 2.879-7.663 4.33-11.127 4.33-1.73 0-3.346-.356-4.804-1.074C8.754 64.453 7 61.752 7 58.843c0-2.328.744-4.018 1.916-5.277 1.172-1.258 2.814-2.081 4.63-2.466a1 1 0 0 0 .794-.979v-.797a1 1 0 0 0-.002-.037l-.041-1.137a1 1 0 0 0-.008-.091c-1.314-10.078 1.916-15.46 6.262-18.59 4.345-3.13 9.979-3.907 13.336-4.04a1 1 0 0 0 .867-.575l1.816-3.875a1 1 0 0 0 .055-.7c-.982-3.421-.172-6.31 1.729-8.48 1.481-1.691 3.78-2.712 6.343-3.242zm-1.07 7.877c-.024 2.057.997 2.866 2.839 2.697.296-1.764-.614-2.84-2.838-2.697zM23.78 34.58c-.55.08-.93.58-.86 1.13.07.5.501.86.991.86h.14v-.01c.55-.07.93-.57.85-1.12a.995.995 0 0 0-1.12-.86zm22.26.043c1.99 1.274 5.58 3.463 8.305 4.424 2.617.923 4.1 4.346 4.437 5.16-.409.356-.982.615-1.615.59-.807-.032-1.36-.357-1.516-.902a5.133 5.133 0 0 0-.357-1.352c-.321-.786-.995-1.807-2.248-2.08-1.017-.221-3.034-.39-5.147-.67a41.717 41.717 0 0 1-2.994-.488c-.199-.042-.347-.091-.527-.137.887-1.334 1.49-2.871 1.662-4.545zm-18.228.4c-.388.014-.75.257-.9.647-.19.51.06 1.09.58 1.29.12.04.239.06.359.06.4 0 .78-.24.93-.64a.992.992 0 0 0-.58-1.29.972.972 0 0 0-.39-.067zm-7.416 1.05a1.004 1.004 0 0 0-.956 1.587c.2.26.501.41.811.41a1 1 0 0 0 .59-.2c.45-.33.54-.96.21-1.4a.993.993 0 0 0-.655-.398zm43.183 1.068c-.54-.09-1.058.28-1.148.82a.999.999 0 0 0 .81 1.158 1.007 1.007 0 0 0 1.158-.818.997.997 0 0 0-.82-1.15v-.01zm-32.42.162a1 1 0 0 0-.838 1.646c.2.23.48.352.76.352a1 1 0 0 0 .078-1.998zm36.14 1.17a.993.993 0 0 0-.997.476c-.28.47-.13 1.091.34 1.371.16.1.338.14.52.14.34 0 .669-.17.849-.48a.986.986 0 0 0-.34-1.37.983.983 0 0 0-.371-.137zm2.518 2.798c-.129.017-.257.06-.377.13-.47.28-.63.899-.35 1.369.19.32.52.49.86.492.18 0 .352-.04.512-.14.48-.28.63-.891.35-1.37a1.005 1.005 0 0 0-.995-.48zm-33.671 2.545c.476 2.286 1.413 5.526 3.568 9.184H36.77c-.23-1.186-.841-2.275-1.674-3.137-.825-.853-1.919-1.382-3.092-1.63.827-.964 1.528-2.449 1.766-4.329a50.225 50.225 0 0 0 2.375-.088zm34.914 1.223c-.54.07-.93.57-.86 1.121a1 1 0 0 0 .99.87c.04 0 .09 0 .13-.01a.99.99 0 0 0 .86-1.11v-.012c-.07-.54-.57-.929-1.12-.859zm.23 3.992a.987.987 0 0 0-1.11.87.987.987 0 0 0 .872 1.109c.04.01.079.01.119.01.5 0 .93-.37.99-.88a.989.989 0 0 0-.87-1.109zm-6.012 1.778a1 1 0 0 0-.798.418l-7.07 9.898a1 1 0 0 0 .107 1.29l4.949 4.948a1 1 0 0 0 1.289.108l1.795-1.282c.034.037.062.078.097.114a4.514 4.514 0 0 0 6.364 0c1.424-1.425 1.67-3.582.773-5.282l.87-.62a1 1 0 0 0 .124-1.522L66 51.102a1 1 0 0 0-.723-.293zm.143 2.54l6.11 6.11-8.25 5.893-3.753-3.752 5.893-8.25zm5.73 8.839a2.48 2.48 0 0 1-.554 2.7c-.94.94-2.403.972-3.39.118l3.944-2.819zM54 69a1 1 0 0 0-1 1 1 1 0 0 0 1 1 1 1 0 0 0 1-1 1 1 0 0 0-1-1zm0 4a1 1 0 0 0-1 1 1 1 0 0 0 1 1 1 1 0 0 0 1-1 1 1 0 0 0-1-1z" fill="rgba(0, 0, 0, 1)" stroke="none"/>
</svg>
</g></svg></g></g>
<!-- /image 09560 -->
</defs><rect x="0" y="0" width="250" height="250" fill="rgba(241, 241, 241, 1)"></rect><use xlink:href="#transformed-82526" transform="translate(-250, -250)"></use><use xlink:href="#transformed-82526" transform="translate(0, -250)"></use><use xlink:href="#transformed-82526" transform="translate(250, -250)"></use><use xlink:href="#transformed-82526" transform="translate(-250, 0)"></use><use xlink:href="#transformed-82526" transform="translate(0, 0)"></use><use xlink:href="#transformed-82526" transform="translate(250, 0)"></use><use xlink:href="#transformed-82526" transform="translate(-250, 250)"></use><use xlink:href="#transformed-82526" transform="translate(0, 250)"></use><use xlink:href="#transformed-82526" transform="translate(250, 250)"></use><use xlink:href="#transformed-62281" transform="translate(-250, -250)"></use><use xlink:href="#transformed-62281" transform="translate(0, -250)"></use><use xlink:href="#transformed-62281" transform="translate(250, -250)"></use><use xlink:href="#transformed-62281" transform="translate(-250, 0)"></use><use xlink:href="#transformed-62281" transform="translate(0, 0)"></use><use xlink:href="#transformed-62281" transform="translate(250, 0)"></use><use xlink:href="#transformed-62281" transform="translate(-250, 250)"></use><use xlink:href="#transformed-62281" transform="translate(0, 250)"></use><use xlink:href="#transformed-62281" transform="translate(250, 250)"></use><use xlink:href="#transformed-09560" transform="translate(-250, -250)"></use><use xlink:href="#transformed-09560" transform="translate(0, -250)"></use><use xlink:href="#transformed-09560" transform="translate(250, -250)"></use><use xlink:href="#transformed-09560" transform="translate(-250, 0)"></use><use xlink:href="#transformed-09560" transform="translate(0, 0)"></use><use xlink:href="#transformed-09560" transform="translate(250, 0)"></use><use xlink:href="#transformed-09560" transform="translate(-250, 250)"></use><use xlink:href="#transformed-09560" transform="translate(0, 250)"></use><use xlink:href="#transformed-09560" transform="translate(250, 250)"></use></svg>